# xmcd
#
# Track frame offsets: 
#        150
#        21260
#        35702
#        53006
#        70983
#        90362
#        109612
#        128444
#        144726
#        160460
#        177018
#        199333
#        216525
#        234932
#
# Disc length: 3471 seconds
#
# Revision: 0
# Processed by: cddbd v1.5.2PL0 Copyright (c) Steve Scherf et al.
# Submitted via: ExactAudioCopy v0.99pb4
#
DISCID=c30d8d0e
DTITLE=이홍재 - 로맨틱 Saxophone 가요발라드 CD1
DYEAR=2010
DGENRE=Ballad
TTITLE0=낙인
TTITLE1=죽어도 못 보내
TTITLE2=우리 헤어지자
TTITLE3=들리나요
TTITLE4=사랑이 죄 인가요
TTITLE5=눈물이 뚝뚝
TTITLE6=나 혼자서
TTITLE7=사랑해 미안해
TTITLE8=좋은 사람
TTITLE9=슬픔 활용법
TTITLE10=미워도 사랑하니까
TTITLE11=사랑한 후에
TTITLE12=애인 있어요
TTITLE13=거위의 꿈
EXTD=
EXTT0=
EXTT1=
EXTT2=
EXTT3=
EXTT4=
EXTT5=
EXTT6=
EXTT7=
EXTT8=
EXTT9=
EXTT10=
EXTT11=
EXTT12=
EXTT13=
PLAYORDER=
